REM MD5 fb035b525fc936e53740612b208cb691
FILE "TIZ - Tokyo Insect Zoo (Japan) (Demo).bin" BINARY
  TRACK 01 MODE2/2352
    INDEX 01 00:00:00
  TRACK 02 AUDIO
    INDEX 00 30:16:06
    INDEX 01 30:18:06
  TRACK 03 AUDIO
    INDEX 00 31:14:67
    INDEX 01 31:16:67
REM LEADOUT 34:27:09
